<?xml version="1.0" encoding="iso-8859-1"?>
<!-- Uploaded to: SVG Repo, www.svgrepo.com, Generator: SVG Repo Mixer Tools -->
<svg fill="#000000" height="64px" width="64px" version="1.1" id="Layer_1" xmlns="http://www.w3.org/2000/svg" xmlns:xlink="http://www.w3.org/1999/xlink"
	 viewBox="0 0 512 512" xml:space="preserve">
<g>
	<g>
		<path d="M201.275,96.165l-11.919,11.919c-26.292,26.288-69.069,26.291-95.361,0C73.27,87.359,68.273,55.9,81.564,29.807
			c4.226-8.296,0.925-18.446-7.371-22.672c-8.294-4.228-18.446-0.926-22.672,7.371c-19.938,39.146-12.449,86.334,18.636,117.419
			c39.438,39.438,103.606,39.436,143.039,0l11.919-11.919c12.858-12.856,27.97-22.117,44.074-27.789
			c11.784-14.763,22.661-28.319,32.306-40.252C265.03,53.649,229.061,68.381,201.275,96.165z"/>
	</g>
</g>
<g>
	<g>
		<path d="M482.189,430.439c-26.096,13.286-57.55,8.288-78.274-12.435c-12.735-12.735-19.749-29.668-19.749-47.679
			s7.014-34.944,19.749-47.68l11.92-11.92c38.118-38.118,51.665-91.639,40.656-140.712c16.229-13.253,27.199-22.501,30.862-26.166
			c32.862-32.863,32.862-86.335,0-119.198c-32.863-32.863-86.336-32.863-119.199,0C341.393,51.407,17.343,467.097,3.562,484.779
			c-5.23,6.71-4.64,16.267,1.377,22.282c3.27,3.271,7.587,4.938,11.924,4.938c3.64,0,7.296-1.174,10.358-3.561
			c13.964-10.882,276.103-215.232,398.944-313.896c2.484,33.111-8.903,67.077-34.169,92.343l-11.92,11.92
			c-19.104,19.104-29.624,44.503-29.624,71.52c0,27.016,10.521,52.416,29.625,71.519c19.485,19.486,45.291,29.7,71.484,29.698
			c15.59-0.001,31.322-3.621,45.927-11.06c8.297-4.224,11.597-14.375,7.372-22.671C500.635,429.514,490.482,426.215,482.189,430.439
			z M415.835,96.165l-0.001-0.001l-23.84,23.84l0.001,0.001c4.047,4.047,7.73,8.321,11.064,12.774l-11.065,11.065
			c-3.292,3.292-7.607,4.938-11.919,4.938c-4.314,0-8.629-1.645-11.919-4.938c-6.583-6.582-6.583-17.256,0-23.84l47.68-47.679
			c6.583-6.583,17.257-6.583,23.84,0c6.583,6.582,6.583,17.256,0,23.84l-12.587,12.586
			C423.608,104.401,419.864,100.194,415.835,96.165z"/>
	</g>
</g>
</svg>