<svg id="svg" version="1.1" xmlns="http://www.w3.org/2000/svg" xmlns:xlink="http://www.w3.org/1999/xlink" width="400" height="107.06766917293233" viewBox="0, 0, 400,107.06766917293233"><g id="svgg"><path id="path0" d="M26.902 2.257 C 24.263 5.173,23.942 10.071,26.196 13.026 L 27.730 15.038 26.330 15.038 C 24.086 15.038,22.339 16.660,21.938 19.115 C 20.966 25.061,19.672 29.865,18.325 32.523 C 17.509 34.132,16.842 36.241,16.842 37.209 C 16.842 38.238,16.458 39.116,15.917 39.324 C 14.762 39.767,14.182 38.387,14.683 36.390 C 15.142 34.563,13.911 34.344,12.424 35.987 C 10.189 38.457,12.738 42.221,17.213 43.060 C 19.238 43.440,19.334 43.565,18.994 45.377 C 18.737 46.745,19.048 48.108,20.085 50.156 L 21.536 53.021 18.963 62.232 C 14.392 78.602,10.885 83.749,6.564 80.432 C 3.552 78.119,3.987 74.586,7.283 74.586 C 9.402 74.586,9.560 72.927,7.514 72.171 C 3.305 70.618,-0.262 75.281,1.129 80.518 C 2.798 86.802,7.391 90.226,14.153 90.226 C 18.613 90.226,18.964 90.496,17.384 92.715 C 13.893 97.618,20.219 100.436,34.737 100.447 C 41.806 100.452,41.844 100.412,38.138 96.817 C 30.853 89.749,25.885 79.092,23.757 65.968 C 21.792 53.854,22.679 53.361,26.646 64.361 C 37.949 95.702,47.567 107.506,60.162 105.492 C 63.157 105.013,63.165 104.480,60.210 102.524 C 58.515 101.403,57.758 100.414,57.487 98.967 C 57.280 97.865,56.712 96.632,56.225 96.227 C 54.803 95.047,55.172 94.598,57.899 94.189 C 67.589 92.736,75.452 84.287,73.018 77.944 C 72.500 76.594,72.185 76.693,67.899 79.563 C 50.784 91.021,35.117 81.650,25.614 54.270 C 24.842 52.046,24.027 49.791,23.803 49.259 C 23.506 48.553,23.910 48.079,25.303 47.502 C 29.375 45.816,30.290 41.665,28.572 32.684 C 26.819 23.528,27.647 20.451,31.865 20.451 C 36.642 20.451,36.960 21.273,34.532 27.339 C 32.311 32.886,34.066 45.714,37.046 45.714 C 38.155 45.714,38.111 43.343,36.973 41.840 C 35.828 40.325,35.853 38.820,37.043 37.629 C 37.567 37.105,38.067 35.777,38.154 34.679 C 38.242 33.580,38.936 31.838,39.697 30.808 C 41.040 28.991,41.050 28.887,40.026 27.324 C 39.152 25.989,39.041 24.966,39.378 21.364 C 39.794 16.927,39.525 16.129,37.099 14.600 C 35.892 13.839,34.286 10.964,34.286 9.565 C 34.286 3.870,29.621 -0.747,26.902 2.257 M30.943 6.750 C 31.541 7.604,31.880 9.408,31.880 11.743 C 31.880 15.811,32.512 16.842,35.008 16.842 C 36.633 16.842,36.979 17.331,36.706 19.248 C 36.527 20.504,36.628 20.496,33.745 19.503 C 27.465 17.339,24.038 22.115,26.159 30.075 C 28.219 37.807,27.906 43.022,25.237 45.437 C 23.521 46.991,23.115 46.082,24.596 44.002 C 26.233 41.703,26.273 36.940,24.711 30.376 C 22.031 19.111,22.681 15.223,26.996 16.727 C 29.600 17.635,29.952 16.589,28.574 12.039 C 26.958 6.700,28.499 3.260,30.943 6.750 M91.128 18.688 C 77.651 19.184,73.776 19.941,68.571 23.098 C 57.515 29.805,57.895 45.113,69.118 45.113 C 75.155 45.113,82.392 37.513,83.998 29.486 C 84.519 26.881,83.511 27.259,82.105 30.196 C 76.485 41.939,61.926 45.689,61.965 35.385 C 62.002 25.601,73.240 20.633,89.624 23.158 C 99.766 24.721,105.858 23.835,107.621 20.542 C 108.729 18.470,108.388 18.041,105.714 18.146 C 104.308 18.201,97.744 18.445,91.128 18.688 M245.588 21.344 C 241.741 24.637,234.786 33.594,226.432 46.015 C 208.646 72.460,203.360 76.913,194.586 72.842 C 181.374 66.712,186.259 45.735,200.902 45.719 C 209.572 45.709,213.210 57.034,206.540 63.270 C 202.905 66.669,198.904 67.037,194.683 64.361 C 191.427 62.296,191.278 62.254,191.278 63.401 C 191.278 66.144,199.586 68.636,203.608 67.100 C 216.129 62.318,213.658 41.504,200.568 41.504 C 183.927 41.504,179.373 69.969,195.179 75.185 C 203.716 78.002,211.222 72.378,222.873 54.436 C 233.102 38.683,236.413 33.874,238.817 31.278 C 241.454 28.431,241.346 28.691,236.693 36.391 C 225.741 54.512,219.120 75.188,224.268 75.188 C 226.184 75.188,228.811 71.543,240.294 52.954 C 247.015 42.074,251.349 35.489,251.788 35.489 C 251.928 35.489,250.856 37.857,249.406 40.752 C 240.380 58.772,237.682 68.689,240.564 73.253 C 243.030 77.159,246.163 76.186,250.643 70.126 C 254.242 65.257,255.038 65.124,255.038 69.393 C 255.038 76.305,259.139 77.856,264.004 72.782 C 265.590 71.128,267.348 69.774,267.910 69.774 C 269.232 69.774,272.050 68.312,273.050 67.107 C 274.323 65.573,274.678 65.997,274.750 69.135 C 274.902 75.809,277.997 77.634,282.138 73.492 L 284.435 71.195 284.822 72.737 C 286.039 77.583,290.606 75.976,294.737 69.248 C 296.699 66.052,296.902 66.125,297.381 70.200 C 298.099 76.312,301.079 77.538,305.056 73.358 C 307.169 71.136,307.370 71.046,307.388 72.305 C 307.470 78.231,313.488 76.010,318.104 68.352 C 320.807 63.867,320.227 62.750,317.310 66.824 C 309.471 77.775,308.132 75.673,314.480 62.381 C 319.335 52.215,319.306 52.331,317.047 52.331 C 315.735 52.331,314.923 52.778,314.183 53.907 L 313.151 55.483 312.086 54.168 C 308.928 50.268,303.330 53.864,296.219 64.361 C 292.687 69.575,289.472 73.383,288.604 73.383 C 286.905 73.383,288.194 69.816,299.305 43.767 C 307.029 25.660,306.793 26.466,304.376 26.466 C 302.189 26.466,302.365 26.145,295.984 41.796 C 290.412 55.466,290.505 55.317,288.730 53.542 C 286.100 50.912,281.605 53.558,275.452 61.359 C 269.271 69.194,267.234 70.035,269.502 63.814 C 274.022 51.418,265.165 48.509,257.047 59.723 C 255.799 61.447,254.467 63.053,254.086 63.293 C 253.706 63.533,252.272 65.451,250.901 67.556 C 248.316 71.524,246.382 73.057,244.440 72.682 C 241.395 72.093,246.356 56.910,257.523 32.643 C 264.614 17.232,264.640 15.745,257.665 24.511 C 251.460 32.310,248.353 36.965,237.888 54.135 C 232.509 62.963,228.381 68.902,228.136 68.166 C 227.312 65.696,238.898 38.881,246.798 24.975 C 250.344 18.732,249.966 17.597,245.588 21.344 M90.805 27.634 C 87.534 31.117,84.287 36.481,81.182 43.529 C 79.489 47.371,78.646 48.542,76.692 49.763 C 73.569 51.714,69.311 55.795,68.207 57.895 C 66.788 60.594,68.204 59.805,72.524 55.489 C 77.286 50.731,77.910 51.202,74.869 57.261 C 65.765 75.401,47.527 80.439,40.683 66.704 C 34.703 54.705,48.580 38.960,59.124 45.780 C 69.252 52.330,59.726 68.155,48.120 64.060 C 45.020 62.966,45.113 62.969,45.113 63.964 C 45.113 66.173,53.275 67.517,56.731 65.877 C 69.070 60.022,66.270 40.285,53.102 40.304 C 35.816 40.330,31.227 70.542,47.805 75.184 C 60.635 78.776,73.098 71.218,80.998 55.053 C 83.555 49.822,83.723 49.629,86.393 48.851 C 90.007 47.797,89.999 47.727,86.882 53.196 C 83.344 59.404,83.000 60.752,84.954 60.752 C 86.352 60.752,88.421 59.138,88.421 58.048 C 88.421 57.771,89.954 54.341,91.827 50.424 C 95.583 42.574,95.623 41.952,92.237 44.059 C 90.965 44.850,88.738 45.965,87.288 46.536 L 84.651 47.574 85.019 45.731 C 85.645 42.602,88.986 35.140,92.025 30.084 C 95.471 24.351,94.922 23.249,90.805 27.634 M124.600 41.203 C 123.275 44.033,122.449 45.113,121.609 45.113 C 120.970 45.113,120.111 45.519,119.699 46.015 C 119.074 46.769,119.160 46.917,120.227 46.917 C 122.544 46.917,119.236 53.547,111.443 64.522 C 102.047 77.755,100.131 77.094,106.755 62.905 C 111.870 51.949,111.768 52.331,109.564 52.331 C 108.311 52.331,107.415 52.817,106.595 53.943 L 105.421 55.555 104.720 54.243 C 103.659 52.262,100.078 52.462,97.024 54.674 C 93.326 57.353,87.218 65.564,88.924 65.564 C 89.217 65.564,89.605 67.198,89.786 69.194 C 90.412 76.095,93.288 77.680,97.514 73.454 C 99.431 71.538,99.850 71.329,99.850 72.291 C 99.850 78.594,105.330 76.354,110.947 67.754 C 114.264 62.674,114.721 62.374,113.390 66.147 C 109.482 77.225,117.945 78.680,123.668 67.914 L 124.757 65.865 125.275 69.405 C 126.349 76.741,129.552 77.940,134.442 72.837 C 136.329 70.868,137.951 69.757,139.310 69.502 C 141.841 69.027,144.755 66.098,148.117 60.651 C 149.512 58.391,150.896 56.541,151.194 56.541 C 151.895 56.541,151.183 63.174,150.063 67.068 C 148.472 72.602,144.924 76.685,145.809 71.963 C 146.309 69.298,144.718 67.650,143.394 69.461 C 141.725 71.743,143.149 75.789,145.621 75.789 C 146.562 75.789,146.776 76.137,146.639 77.444 C 146.502 78.754,146.716 79.098,147.669 79.098 C 148.550 79.098,148.880 78.686,148.903 77.563 C 148.923 76.586,149.863 75.099,151.496 73.467 C 154.365 70.598,157.594 65.805,157.594 64.416 C 157.594 63.868,156.911 64.323,155.880 65.557 L 154.167 67.609 153.474 62.953 C 152.518 56.520,152.598 55.090,153.985 53.835 C 154.647 53.236,155.188 52.111,155.188 51.335 C 155.188 49.224,153.038 49.489,151.872 51.744 C 146.701 61.743,135.900 73.709,139.533 65.414 C 141.318 61.337,141.643 57.634,140.438 55.095 C 137.732 49.392,132.444 52.469,124.086 64.608 C 118.202 73.154,114.887 76.214,114.887 73.099 C 114.887 72.114,119.295 61.774,123.536 52.812 L 126.297 46.978 129.717 46.797 C 134.222 46.559,134.960 45.113,130.576 45.113 C 127.059 45.113,126.987 44.918,129.023 40.902 C 130.908 37.181,130.925 37.293,128.478 37.293 C 126.545 37.293,126.326 37.514,124.600 41.203 M395.192 38.489 C 394.124 40.485,394.658 42.975,396.200 43.194 C 397.789 43.421,398.954 41.557,398.684 39.218 C 398.441 37.113,396.181 36.641,395.192 38.489 M352.180 53.227 C 348.441 54.538,340.048 64.728,342.134 65.423 C 342.532 65.556,342.857 66.583,342.857 67.707 C 342.857 70.376,344.515 74.466,345.897 75.206 C 349.556 77.163,352.964 74.413,360.332 63.557 C 367.570 52.893,370.617 51.426,366.160 60.752 C 360.147 73.333,364.056 80.239,372.632 72.187 C 374.020 70.883,375.923 69.763,377.130 69.538 C 378.346 69.311,380.210 68.208,381.580 66.905 C 383.025 65.529,383.786 65.089,383.546 65.767 C 379.526 77.139,386.857 78.847,393.768 68.149 C 397.784 61.932,395.840 62.521,391.572 68.814 C 388.926 72.716,386.826 74.464,385.653 73.740 C 384.822 73.226,385.711 70.789,390.298 61.012 C 394.624 51.790,394.519 52.331,391.981 52.331 C 390.134 52.331,389.679 52.760,386.201 57.788 C 380.133 66.559,375.163 71.092,377.510 65.714 C 380.916 57.909,381.584 54.372,379.913 52.985 C 378.564 51.866,377.144 53.785,377.138 56.735 C 377.125 64.257,371.393 73.985,366.975 73.985 C 365.105 73.985,365.361 72.236,368.152 65.949 C 371.781 57.774,371.940 53.653,368.666 52.614 C 366.837 52.033,364.513 54.460,359.378 62.314 C 351.496 74.369,347.006 77.378,346.586 70.885 L 346.405 68.086 349.688 66.583 C 356.787 63.333,360.176 57.018,356.692 53.534 C 355.287 52.129,355.309 52.130,352.180 53.227 M103.065 59.719 C 101.112 66.390,95.654 74.516,93.608 73.797 C 91.049 72.898,94.835 61.033,99.097 56.595 L 101.749 53.835 102.866 55.207 C 103.914 56.494,103.926 56.777,103.065 59.719 M310.977 57.330 C 310.977 62.092,304.059 73.985,301.288 73.985 C 298.009 73.985,302.507 60.025,307.080 56.010 C 309.767 53.650,310.977 54.060,310.977 57.330 M355.374 55.790 C 355.780 58.540,350.360 65.564,347.833 65.564 C 346.828 65.564,346.835 65.522,348.486 61.789 C 351.049 55.994,354.908 52.633,355.374 55.790 M138.711 56.283 C 140.289 62.572,131.889 77.105,128.978 73.123 C 127.239 70.746,130.962 59.714,134.798 55.879 C 136.449 54.228,138.242 54.413,138.711 56.283 M268.345 56.391 C 270.122 60.942,263.058 74.602,259.318 73.845 C 257.606 73.499,258.134 67.195,260.264 62.556 C 263.544 55.412,266.948 52.814,268.345 56.391 M288.187 56.090 C 288.334 59.084,287.918 60.655,285.760 65.263 C 281.069 75.277,275.457 77.000,278.194 67.586 C 280.837 58.492,287.905 50.362,288.187 56.090 " stroke="none" fill="#000000" fill-rule="evenodd"></path></g></svg>